# xmcd
#
# Track frame offsets:
#	150
#	14423
#	27566
#	40486
#	56394
#	69347
#	79235
#	93741
#	112899
#	128704
#	139221
#	149909
#	167207
#	182577
#	196072
#	207292
#
# Disc length: 2887 seconds
#
# Revision: 1
# Processed by: cddbd v1.5.2PL0 Copyright (c) Steve Scherf et al.
# Submitted via: audiograbber 1.83.01
#
DISCID=eb0b4510
DTITLE=Varius Artist - Country Party CD3
DYEAR=2006
DGENRE=Country
TTITLE0=Maarten - Welcome To My World
TTITLE1=Wenche - Jambalaya
TTITLE2=Daniel O'Donnell and The Jordanaires - Don't Be Angry
TTITLE3=Kim Schwartz - What The Cowgrirls Do
TTITLE4=Sandy Posey and The Jordanaires - I Take It Back
TTITLE5=Dr. Hook featuring Ray Sawyer - It'll Be Me
TTITLE6=Tamra Rosanes - Every Little Thing
TTITLE7=Smokie - Lay Back In The Arms Of Someone (U.S. Country Version)
TTITLE8=Johnny Logan - Mighty Queen
TTITLE9=Kandis - Think Of Me
TTITLE10=Kirsten Siggaard - Lovesick Blues
TTITLE11=McKinleys - You're Not The Only One
TTITLE12=Country Lise - You Just Can't Please Everybody
TTITLE13=Poaches - Lay Down Sally
TTITLE14=Maarten - Adios Amigo
TTITLE15=Charlie McCoy - Shenandoah
EXTD=
EXTT0=
EXTT1=
EXTT2=
EXTT3=
EXTT4=
EXTT5=
EXTT6=
EXTT7=
EXTT8=
EXTT9=
EXTT10=
EXTT11=
EXTT12=
EXTT13=
EXTT14=
EXTT15=
PLAYORDER=
